<svg xmlns="http://www.w3.org/2000/svg" width="128" height="128" viewBox="0 0 128 128">
<g>
<path d="M 11.77 69.81 L 11.50 91.50 L 8.96 91.80 C7.57,91.96 6.10,91.77 5.71,91.38 C5.32,90.99 5.00,81.07 5.00,69.33 L 5.00 48.00 L 12.00 48.00 L 12.00 13.00 L 20.00 13.00 L 20.00 4.00 L 35.00 4.00 L 35.00 7.30 C35.00,12.00 33.48,13.00 26.32,13.00 L 20.05 13.00 L 19.77 30.25 L 19.50 47.50 L 15.77 47.81 L 12.04 48.12 ZM 101.50 110.50 L 101.50 118.50 L 64.93 118.76 C44.81,118.91 28.05,118.72 27.68,118.35 C27.31,117.97 27.00,115.94 27.00,113.83 C27.00,110.12 26.89,110.00 23.50,110.00 C20.08,110.00 20.00,109.90 20.00,106.00 C20.00,102.10 20.08,102.00 23.50,102.00 C26.91,102.00 27.00,102.10 27.00,105.99 L 27.00 109.98 L 64.25 110.24 ZM 93.50 83.57 L 93.50 100.50 L 42.00 101.03 L 42.00 83.88 L 45.75 84.19 C49.59,84.51 49.55,84.45 49.89,90.29 C49.99,91.87 50.87,92.05 57.25,91.79 C62.14,91.60 64.54,91.09 64.62,90.25 C64.69,89.56 64.81,87.88 64.88,86.50 C64.98,84.33 65.47,84.00 68.50,84.00 C71.92,84.00 72.00,84.09 72.00,88.04 L 72.00 92.09 L 86.50 91.50 L 87.00 87.50 C87.46,83.82 87.74,83.50 90.50,83.54 ZM 78.80 34.31 L 78.50 38.50 L 64.25 38.78 L 50.00 39.05 L 50.00 30.00 L 79.00 30.00 L 79.00 26.00 C79.00,22.44 79.26,22.00 81.42,22.00 C85.92,22.00 87.00,21.01 87.00,16.89 C87.00,13.10 87.09,13.00 90.56,13.00 C94.06,13.00 94.12,13.06 93.81,16.75 C93.53,20.16 93.21,20.53 90.30,20.81 C87.33,21.10 87.09,21.40 86.80,25.31 C86.51,29.35 86.37,29.51 82.80,29.81 C79.24,30.10 79.10,30.26 78.80,34.31 ZM 116.05 13.00 L 115.50 47.50 L 109.00 48.13 L 109.00 13.09 L 101.75 12.79 L 94.50 12.50 L 94.19 8.25 L 93.89 4.00 L 109.00 4.00 L 109.00 8.50 C109.00,12.98 109.01,13.00 112.52,13.00 ZM 123.00 48.00 L 123.00 92.00 L 120.11 92.00 C118.52,92.00 117.00,91.43 116.73,90.74 C116.47,90.05 116.48,80.15 116.77,68.74 L 117.29 48.00 ZM 101.00 57.00 L 101.00 74.00 L 87.00 74.00 L 87.00 70.06 C87.00,66.35 87.19,66.11 90.25,65.81 C93.30,65.52 93.52,65.24 93.81,61.25 C94.11,57.13 94.22,57.00 97.56,57.00 ZM 49.00 57.00 L 49.00 74.00 L 35.00 74.00 L 35.00 70.00 C35.00,66.10 35.08,66.00 38.50,66.00 C41.98,66.00 42.00,65.98 42.00,61.50 C42.00,57.02 42.02,57.00 45.50,57.00 ZM 49.39 28.42 C49.00,29.43 47.56,30.00 45.39,30.00 C42.04,30.00 42.00,29.95 42.00,25.50 C42.00,21.02 41.98,21.00 38.50,21.00 C35.08,21.00 35.00,20.90 35.00,17.00 C35.00,13.11 35.09,13.00 38.44,13.00 C41.78,13.00 41.89,13.13 42.19,17.25 C42.47,21.05 42.77,21.51 45.10,21.60 C49.69,21.77 51.09,24.00 49.39,28.42 ZM 78.81 70.25 C78.52,74.24 78.30,74.52 75.25,74.81 C72.01,75.13 72.00,75.11 72.00,70.56 C72.00,66.00 72.00,66.00 75.56,66.00 L 79.11 66.00 ZM 108.81 105.75 C108.53,109.17 108.22,109.53 105.25,109.81 C102.07,110.12 102.00,110.05 102.00,106.06 C102.00,102.07 102.06,102.00 105.56,102.00 C109.06,102.00 109.12,102.06 108.81,105.75 ZM 115.81 96.75 C115.55,99.92 115.11,100.55 112.96,100.80 C109.69,101.18 109.00,100.40 109.00,96.33 C109.00,93.18 109.19,93.00 112.56,93.00 C116.06,93.00 116.12,93.06 115.81,96.75 ZM 19.00 97.00 C19.00,100.78 18.83,101.00 16.00,101.00 C13.17,101.00 13.00,100.78 13.00,97.00 C13.00,93.22 13.17,93.00 16.00,93.00 C18.83,93.00 19.00,93.22 19.00,97.00 Z" fill="rgb(4,4,4)"/>
<path d="M 116.05 13.00 L 117.00 13.00 L 117.00 46.87 L 123.50 47.50 L 123.50 92.50 L 120.25 92.81 C117.42,93.09 117.00,93.49 117.00,95.98 C117.00,100.76 116.06,102.00 112.45,102.00 C109.32,102.00 109.10,102.23 108.81,105.75 C109.12,102.06 109.06,102.00 105.56,102.00 C102.06,102.00 102.00,102.07 102.00,106.06 C102.00,106.43 102.00,106.77 102.00,107.07 C101.95,106.51 101.90,105.84 101.85,105.06 L 101.50 100.00 L 104.75 100.00 C107.87,100.00 108.00,99.84 108.00,96.06 C108.00,92.35 107.81,92.11 104.75,91.81 L 101.50 91.50 L 100.92 75.00 L 86.49 75.00 L 86.84 70.56 C86.90,69.83 86.95,69.21 87.02,68.70 C87.00,69.09 87.00,69.54 87.00,70.06 L 87.00 74.00 L 101.00 74.00 L 101.00 57.00 L 102.00 57.00 L 102.00 73.83 L 108.50 74.16 C113.22,74.41 115.00,74.16 115.00,73.25 C115.00,72.56 115.45,72.00 116.00,72.00 C116.31,72.00 116.57,71.06 116.75,69.49 C116.48,80.58 116.47,90.07 116.73,90.74 C117.00,91.43 118.52,92.00 120.11,92.00 L 123.00 92.00 L 123.00 48.00 L 117.29 48.00 L 116.95 61.38 C116.83,58.13 116.47,56.00 116.00,56.00 C115.45,56.00 115.00,54.20 115.00,52.00 C115.00,48.22 114.83,48.00 112.00,48.00 L 110.31 48.00 L 115.50 47.50 ZM 11.77 69.81 L 12.00 51.23 L 12.00 67.98 C12.00,78.90 12.27,88.55 12.61,89.42 C12.98,90.40 14.42,91.00 16.36,91.00 L 19.50 91.00 L 19.17 83.36 C18.92,77.80 19.20,75.48 20.17,74.84 C20.90,74.36 24.42,74.05 28.00,74.16 L 34.50 74.36 L 34.81 70.18 C34.88,69.22 34.95,68.47 35.05,67.90 C35.00,68.44 35.00,69.12 35.00,70.00 L 35.00 74.00 L 49.00 74.00 L 49.00 57.00 L 45.50 57.00 C42.02,57.00 42.00,57.02 42.00,61.50 C42.00,65.98 41.98,66.00 38.50,66.00 C37.90,66.00 37.41,66.00 37.00,66.03 C37.29,66.01 37.62,66.00 38.00,66.00 C40.74,66.00 40.91,65.75 41.20,61.25 L 41.50 56.50 L 49.50 56.50 L 49.50 74.50 L 41.75 74.79 L 34.00 75.08 L 34.00 92.00 L 20.00 92.00 L 20.00 96.00 C20.00,99.90 20.08,100.00 23.50,100.00 L 27.00 100.00 L 27.00 105.99 C27.00,102.10 26.91,102.00 23.50,102.00 C20.08,102.00 20.00,102.10 20.00,106.00 C20.00,108.08 20.02,109.08 20.57,109.56 C20.03,109.09 20.00,108.10 20.00,106.06 C20.00,102.13 19.98,102.11 15.75,101.81 C11.53,101.50 11.50,101.47 11.20,97.31 C10.91,93.40 10.67,93.10 7.70,92.81 C5.94,92.64 4.61,92.16 4.75,91.75 C4.89,91.34 5.00,81.32 5.00,69.50 C5.00,81.16 5.32,90.99 5.71,91.38 C6.10,91.77 7.57,91.96 8.96,91.80 L 11.50 91.50 ZM 115.81 96.75 C116.12,93.06 116.06,93.00 112.56,93.00 C109.19,93.00 109.00,93.18 109.00,96.33 C109.00,100.40 109.69,101.18 112.96,100.80 C115.11,100.55 115.55,99.92 115.81,96.75 ZM 19.00 97.00 C19.00,93.22 18.83,93.00 16.00,93.00 C13.17,93.00 13.00,93.22 13.00,97.00 C13.00,100.78 13.17,101.00 16.00,101.00 C18.83,101.00 19.00,100.78 19.00,97.00 ZM 93.81 61.25 C93.97,58.94 94.06,57.88 94.74,57.40 C94.08,57.88 93.97,58.94 93.81,61.25 ZM 104.45 109.89 C104.69,109.87 104.96,109.84 105.25,109.81 C106.63,109.68 107.44,109.53 107.93,109.07 C107.45,109.53 106.67,109.68 105.35,109.81 C105.01,109.84 104.71,109.87 104.45,109.89 ZM 92.88 65.12 C93.50,64.55 93.65,63.48 93.81,61.25 C93.65,63.48 93.51,64.55 92.88,65.12 Z" fill="rgb(201,177,178)"/>
<path d="M 0.00 64.00 L 0.00 0.00 L 64.00 0.00 L 128.00 0.00 L 128.00 64.00 L 128.00 128.00 L 64.00 128.00 L 0.00 128.00 L 0.00 64.00 ZM 101.50 114.50 L 101.50 110.50 L 64.25 110.24 L 27.00 109.98 L 27.00 104.99 L 27.00 100.00 L 23.50 100.00 C20.08,100.00 20.00,99.90 20.00,96.00 L 20.00 92.00 L 27.00 92.00 L 34.00 92.00 L 34.00 83.54 L 34.00 75.08 L 41.75 74.79 L 49.50 74.50 L 49.50 65.50 L 49.50 56.50 L 45.50 56.50 L 41.50 56.50 L 41.20 61.25 C40.91,65.75 40.74,66.00 38.00,66.00 C35.33,66.00 35.09,66.31 34.81,70.18 L 34.50 74.36 L 28.00 74.16 C24.42,74.05 20.90,74.36 20.17,74.84 C19.20,75.48 18.92,77.80 19.17,83.36 L 19.50 91.00 L 16.36 91.00 C14.42,91.00 12.98,90.40 12.61,89.42 C12.27,88.55 12.00,78.90 12.00,67.98 L 12.00 48.12 L 15.75 47.81 L 19.50 47.50 L 19.77 30.25 L 20.05 13.00 L 26.32 13.00 C33.48,13.00 35.00,12.00 35.00,7.30 L 35.00 4.00 L 27.50 4.00 L 20.00 4.00 L 20.00 8.50 L 20.00 13.00 L 16.00 13.00 L 12.00 13.00 L 12.00 30.50 L 12.00 48.00 L 8.50 48.00 L 5.00 48.00 L 5.00 69.50 C5.00,81.32 4.89,91.34 4.75,91.75 C4.61,92.16 5.94,92.64 7.70,92.81 C10.67,93.10 10.91,93.40 11.20,97.31 C11.50,101.47 11.53,101.50 15.75,101.81 C19.98,102.11 20.00,102.13 20.00,106.06 C20.00,109.90 20.09,110.00 23.50,110.00 C26.89,110.00 27.00,110.12 27.00,113.83 C27.00,115.94 27.31,117.97 27.68,118.35 C28.05,118.72 44.81,118.91 64.93,118.76 L 101.50 118.50 L 101.50 114.50 ZM 108.81 105.75 C109.10,102.23 109.32,102.00 112.45,102.00 C116.06,102.00 117.00,100.76 117.00,95.98 C117.00,93.49 117.42,93.09 120.25,92.81 L 123.50 92.50 L 123.50 70.00 L 123.50 47.50 L 120.25 47.19 L 117.00 46.87 L 117.00 29.94 L 117.00 13.00 L 113.00 13.00 L 109.00 13.00 L 109.00 8.50 L 109.00 4.00 L 101.44 4.00 L 93.89 4.00 L 94.19 8.25 L 94.50 12.50 L 101.75 12.79 L 109.00 13.09 L 109.00 30.54 L 109.00 48.00 L 112.00 48.00 C114.83,48.00 115.00,48.22 115.00,52.00 C115.00,54.20 115.45,56.00 116.00,56.00 C116.58,56.00 117.00,59.33 117.00,64.00 C117.00,68.67 116.58,72.00 116.00,72.00 C115.45,72.00 115.00,72.56 115.00,73.25 C115.00,74.16 113.22,74.41 108.50,74.16 L 102.00 73.83 L 102.00 65.41 L 102.00 57.00 L 98.06 57.00 C94.13,57.00 94.11,57.02 93.81,61.25 C93.52,65.21 93.28,65.52 90.35,65.81 C87.39,66.09 87.17,66.39 86.84,70.56 L 86.49 75.00 L 93.70 75.00 L 100.92 75.00 L 101.21 83.25 L 101.50 91.50 L 104.75 91.81 C107.81,92.11 108.00,92.35 108.00,96.06 C108.00,99.84 107.87,100.00 104.75,100.00 L 101.50 100.00 L 101.85 105.06 C102.20,110.06 102.23,110.11 105.35,109.81 C108.20,109.53 108.53,109.15 108.81,105.75 ZM 93.50 92.04 L 93.50 83.57 L 90.50 83.54 C87.74,83.50 87.46,83.82 87.00,87.50 L 86.50 91.50 L 79.25 91.79 L 72.00 92.09 L 72.00 88.04 C72.00,84.09 71.92,84.00 68.50,84.00 C65.47,84.00 64.98,84.33 64.88,86.50 C64.81,87.88 64.69,89.56 64.62,90.25 C64.54,91.09 62.14,91.60 57.25,91.79 C50.87,92.05 49.99,91.87 49.89,90.29 C49.55,84.45 49.59,84.51 45.75,84.19 L 42.00 83.88 L 42.00 92.46 L 42.00 101.03 L 67.75 100.77 L 93.50 100.50 L 93.50 92.04 ZM 78.81 70.25 L 79.11 66.00 L 75.56 66.00 C72.00,66.00 72.00,66.00 72.00,70.56 C72.00,75.11 72.01,75.13 75.25,74.81 C78.30,74.52 78.52,74.24 78.81,70.25 ZM 78.80 34.31 C79.10,30.26 79.24,30.10 82.80,29.81 C86.37,29.51 86.51,29.35 86.80,25.31 C87.09,21.40 87.33,21.10 90.30,20.81 C93.21,20.53 93.53,20.16 93.81,16.75 C94.12,13.06 94.06,13.00 90.56,13.00 C87.09,13.00 87.00,13.10 87.00,16.89 C87.00,21.01 85.92,22.00 81.42,22.00 C79.26,22.00 79.00,22.44 79.00,26.00 L 79.00 30.00 L 64.50 30.00 L 50.00 30.00 L 50.00 34.53 L 50.00 39.05 L 64.25 38.78 L 78.50 38.50 L 78.80 34.31 ZM 49.39 28.42 C51.09,24.00 49.69,21.77 45.10,21.60 C42.77,21.51 42.47,21.05 42.19,17.25 C41.89,13.13 41.78,13.00 38.44,13.00 C35.09,13.00 35.00,13.11 35.00,17.00 C35.00,20.90 35.08,21.00 38.50,21.00 C41.98,21.00 42.00,21.02 42.00,25.50 C42.00,29.95 42.04,30.00 45.39,30.00 C47.56,30.00 49.00,29.43 49.39,28.42 Z" fill="rgb(253,252,252)"/>
</g>
</svg>