<?xml version="1.0" standalone="no"?>
<!DOCTYPE svg PUBLIC "-//W3C//DTD SVG 20010904//EN"
 "http://www.w3.org/TR/2001/REC-SVG-20010904/DTD/svg10.dtd">
<svg version="1.0" xmlns="http://www.w3.org/2000/svg"
 width="32.000000pt" height="32.000000pt" viewBox="0 0 32.000000 32.000000"
 preserveAspectRatio="xMidYMid meet">

<g transform="translate(0.000000,32.000000) scale(0.100000,-0.100000)"
fill="#000000" stroke="none">
<path d="M43 295 c-7 -8 -13 -32 -13 -55 0 -22 -4 -40 -10 -40 -5 0 -10 -23
-10 -51 0 -44 4 -55 30 -79 16 -15 30 -33 30 -39 0 -7 31 -11 90 -11 59 0 90
4 90 11 0 6 14 24 30 39 26 24 30 35 30 79 0 28 -4 51 -10 51 -5 0 -10 18 -10
41 0 41 -17 69 -43 69 -15 0 -32 -29 -22 -38 3 -3 5 0 5 6 0 7 9 12 20 12 17
0 20 -7 20 -45 0 -25 5 -45 10 -45 6 0 10 -23 10 -50 0 -41 -5 -56 -25 -75
-22 -22 -32 -25 -105 -25 -73 0 -83 3 -105 25 -20 19 -25 34 -25 75 0 27 5 50
10 50 6 0 10 20 10 45 0 38 3 45 20 45 11 0 20 -5 20 -12 0 -6 2 -9 5 -6 3 3
3 13 -1 22 -8 20 -34 20 -51 1z"/>
<path d="M107 264 c-12 -13 25 -44 53 -44 30 0 68 34 51 45 -6 3 -11 -1 -11
-9 0 -23 -77 -22 -82 0 -2 9 -6 12 -11 8z"/>
<path d="M102 168 c-17 -17 -15 -38 3 -38 9 0 15 9 15 25 0 29 -1 30 -18 13z"/>
<path d="M232 168 c-17 -17 -15 -38 3 -38 9 0 15 9 15 25 0 29 -1 30 -18 13z"/>
<path d="M180 144 c0 -8 5 -12 10 -9 6 4 8 11 5 16 -9 14 -15 11 -15 -7z"/>
<path d="M100 90 c0 -18 7 -20 65 -20 61 0 65 1 64 23 0 12 -3 16 -6 10 -2 -7
-13 -13 -23 -13 -10 0 -21 6 -24 13 -5 10 -7 10 -12 0 -7 -15 -44 -17 -44 -3
0 6 -4 10 -10 10 -5 0 -10 -9 -10 -20z"/>
</g>
</svg>
